<?xml version="1.0" encoding="UTF-8" standalone="no"?>
<!DOCTYPE svg PUBLIC "-//W3C//DTD SVG 1.0//EN" "http://www.w3.org/TR/2001/REC-SVG-20010904/DTD/svg10.dtd" [
 <!ATTLIST svg xmlns:xlink CDATA #FIXED "http://www.w3.org/1999/xlink">
]>
<!-- Generated by Graphviz version 2.20.2 (Sun Oct 12 21:27:53 UTC 2008)
     For user: (corsac) Yves&#45;Alexis Perez,,, -->
<!-- Title: xfce Pages: 1 -->
<svg width="2175pt" height="692pt" viewBox="0 0 2175 692" xmlns="http://www.w3.org/2000/svg" xmlns:xlink="http://www.w3.org/1999/xlink">
<g id="graph0" class="graph" transform="scale(1, 1) rotate(0) translate(4, 688)">
<title>xfce</title>
<polygon style="fill: white; stroke: white;" points="-4,4 -4,-688 2171,-688 2171,4 -4,4"/>
<!-- xfce4_dev_tools -->
<g id="node1" class="node"><title>xfce4_dev_tools</title>
<ellipse style="fill: none; stroke: black;" cx="678" cy="-18" rx="75.2406" ry="18"/>
<text text-anchor="middle" x="678" y="-13.9" style="font-family: Times New Roman;">xfce4-dev-tools</text>
</g>
<!-- pkg_config -->
<g id="node2" class="node"><title>pkg_config</title>
<ellipse style="fill: none; stroke: black;" cx="502" cy="-90" rx="55.0898" ry="18"/>
<text text-anchor="middle" x="502" y="-85.9" style="font-family: Times New Roman;">pkg-config</text>
</g>
<!-- xfce4_dev_tools&#45;&gt;pkg_config -->
<g id="edge8" class="edge"><title>xfce4_dev_tools-&gt;pkg_config</title>
<path style="fill: none; stroke: black;" d="M631,-38C601,-49 563,-65 537,-76"/>
<polygon style="fill: black; stroke: black;" points="632.283,-41.2598 640,-34 629.44,-34.8631 632.283,-41.2598"/>
</g>
<!-- autoconf -->
<g id="node18" class="node"><title>autoconf</title>
<ellipse style="fill: none; stroke: black;" cx="621" cy="-90" rx="45.8622" ry="18"/>
<text text-anchor="middle" x="621" y="-85.9" style="font-family: Times New Roman;">autoconf</text>
</g>
<!-- xfce4_dev_tools&#45;&gt;autoconf -->
<g id="edge2" class="edge"><title>xfce4_dev_tools-&gt;autoconf</title>
<path style="fill: none; stroke: black;" d="M658,-44C650,-53 642,-63 635,-72"/>
<polygon style="fill: black; stroke: black;" points="660.8,-46.1 664,-36 655.2,-41.9 660.8,-46.1"/>
</g>
<!-- automake -->
<g id="node20" class="node"><title>automake</title>
<ellipse style="fill: none; stroke: black;" cx="735" cy="-90" rx="50.0315" ry="18"/>
<text text-anchor="middle" x="735" y="-85.9" style="font-family: Times New Roman;">automake</text>
</g>
<!-- xfce4_dev_tools&#45;&gt;automake -->
<g id="edge4" class="edge"><title>xfce4_dev_tools-&gt;automake</title>
<path style="fill: none; stroke: black;" d="M698,-44C706,-53 714,-63 721,-72"/>
<polygon style="fill: black; stroke: black;" points="700.8,-41.9 692,-36 695.2,-46.1 700.8,-41.9"/>
</g>
<!-- intltool -->
<g id="node22" class="node"><title>intltool</title>
<ellipse style="fill: none; stroke: black;" cx="842" cy="-90" rx="39.1069" ry="18"/>
<text text-anchor="middle" x="842" y="-85.9" style="font-family: Times New Roman;">intltool</text>
</g>
<!-- xfce4_dev_tools&#45;&gt;intltool -->
<g id="edge6" class="edge"><title>xfce4_dev_tools-&gt;intltool</title>
<path style="fill: none; stroke: black;" d="M723,-38C752,-51 789,-66 814,-78"/>
<polygon style="fill: black; stroke: black;" points="724.56,-34.8631 714,-34 721.717,-41.2598 724.56,-34.8631"/>
</g>
<!-- gtk -->
<g id="node3" class="node"><title>gtk</title>
<ellipse style="fill: none; stroke: black;" cx="175" cy="-594" rx="37.0233" ry="18"/>
<text text-anchor="middle" x="175" y="-589.9" style="font-family: Times New Roman;">GTK+</text>
</g>
<!-- libstartup_notification -->
<g id="node4" class="node"><title>libstartup_notification</title>
<ellipse style="fill: none; stroke: black;" cx="817" cy="-450" rx="96.0882" ry="18"/>
<text text-anchor="middle" x="817" y="-445.9" style="font-family: Times New Roman;">libstartup-notification</text>
</g>
<!-- perl5_uri -->
<g id="node5" class="node"><title>perl5_uri</title>
<ellipse style="fill: none; stroke: black;" cx="993" cy="-522" rx="45.8622" ry="18"/>
<text text-anchor="middle" x="993" y="-517.9" style="font-family: Times New Roman;">perl5-uri</text>
</g>
<!-- dbus_glib -->
<g id="node6" class="node"><title>dbus_glib</title>
<ellipse style="fill: none; stroke: black;" cx="1142" cy="-594" rx="48.1403" ry="18"/>
<text text-anchor="middle" x="1142" y="-589.9" style="font-family: Times New Roman;">dbus-glib</text>
</g>
<!-- perl5_xml_parser -->
<g id="node7" class="node"><title>perl5_xml_parser</title>
<ellipse style="fill: none; stroke: black;" cx="1749" cy="-378" rx="77.8268" ry="18"/>
<text text-anchor="middle" x="1749" y="-373.9" style="font-family: Times New Roman;">perl5-xml-parser</text>
</g>
<!-- xfce4_panel -->
<g id="node8" class="node"><title>xfce4_panel</title>
<ellipse style="fill: none; stroke: black;" cx="778" cy="-306" rx="59.065" ry="18"/>
<text text-anchor="middle" x="778" y="-301.9" style="font-family: Times New Roman;">xfce4-panel</text>
</g>
<!-- xfce4_panel&#45;&gt;libstartup_notification -->
<g id="edge78" class="edge"><title>xfce4_panel-&gt;libstartup_notification</title>
<path style="fill: none; stroke: blue;" d="M833,-378C840,-396 834,-417 827,-432"/>
</g>
<!-- libxfce4util -->
<g id="node24" class="node"><title>libxfce4util</title>
<ellipse style="fill: none; stroke: black;" cx="693" cy="-594" rx="55.7874" ry="18"/>
<text text-anchor="middle" x="693" y="-589.9" style="font-family: Times New Roman;">libxfce4util</text>
</g>
<!-- xfce4_panel&#45;&gt;libxfce4util -->
<g id="edge68" class="edge"><title>xfce4_panel-&gt;libxfce4util</title>
<path style="fill: none; stroke: black;" d="M803,-331C814,-344 826,-361 833,-378"/>
<polygon style="fill: black; stroke: black;" points="805.219,-328.221 796,-323 799.951,-332.831 805.219,-328.221"/>
<path style="fill: none; stroke: black;" d="M833,-378C838,-389 824,-390 814,-396 773,-422 744,-396 712,-432 686,-463 710,-485 693,-522"/>
</g>
<!-- libxfcegui4 -->
<g id="node29" class="node"><title>libxfcegui4</title>
<ellipse style="fill: none; stroke: black;" cx="669" cy="-378" rx="55.7874" ry="18"/>
<text text-anchor="middle" x="669" y="-373.9" style="font-family: Times New Roman;">libxfcegui4</text>
</g>
<!-- xfce4_panel&#45;&gt;libxfcegui4 -->
<g id="edge70" class="edge"><title>xfce4_panel-&gt;libxfcegui4</title>
<path style="fill: none; stroke: black;" d="M744,-329C728,-340 709,-352 694,-362"/>
<polygon style="fill: black; stroke: black;" points="746.621,-331.459 753,-323 742.738,-325.635 746.621,-331.459"/>
</g>
<!-- libexo -->
<g id="node42" class="node"><title>libexo</title>
<ellipse style="fill: none; stroke: black;" cx="1004" cy="-450" rx="34.9399" ry="18"/>
<text text-anchor="middle" x="1004" y="-445.9" style="font-family: Times New Roman;">libexo</text>
</g>
<!-- xfce4_panel&#45;&gt;libexo -->
<g id="edge72" class="edge"><title>xfce4_panel-&gt;libexo</title>
<path style="fill: none; stroke: black;" d="M833,-378C844,-406 926,-430 972,-442"/>
</g>
<!-- libwnck -->
<g id="node57" class="node"><title>libwnck</title>
<ellipse style="fill: none; stroke: black;" cx="1433" cy="-378" rx="41.8891" ry="18"/>
<text text-anchor="middle" x="1433" y="-373.9" style="font-family: Times New Roman;">libwnck</text>
</g>
<!-- xfce4_panel&#45;&gt;libwnck -->
<g id="edge76" class="edge"><title>xfce4_panel-&gt;libwnck</title>
<path style="fill: none; stroke: black;" d="M844,-313C940,-323 1124,-343 1280,-360 1318,-364 1362,-370 1392,-373"/>
<polygon style="fill: black; stroke: black;" points="844.299,-309.512 834,-312 843.602,-316.478 844.299,-309.512"/>
</g>
<!-- cairo -->
<g id="node70" class="node"><title>cairo</title>
<ellipse style="fill: none; stroke: black;" cx="774" cy="-378" rx="30.7734" ry="18"/>
<text text-anchor="middle" x="774" y="-373.9" style="font-family: Times New Roman;">cairo</text>
</g>
<!-- xfce4_panel&#45;&gt;cairo -->
<g id="edge74" class="edge"><title>xfce4_panel-&gt;cairo</title>
<path style="fill: none; stroke: black;" d="M776,-334C776,-343 776,-352 775,-360"/>
<polygon style="fill: black; stroke: black;" points="779.488,-334.299 777,-324 772.522,-333.602 779.488,-334.299"/>
</g>
<!-- hal_storage -->
<g id="node9" class="node"><title>hal_storage</title>
<ellipse style="fill: none; stroke: black;" cx="1501" cy="-234" rx="55.7874" ry="18"/>
<text text-anchor="middle" x="1501" y="-229.9" style="font-family: Times New Roman;">hal-storage</text>
</g>
<!-- xfce_utils -->
<g id="node10" class="node"><title>xfce_utils</title>
<ellipse style="fill: none; stroke: black;" cx="509" cy="-306" rx="48.1403" ry="18"/>
<text text-anchor="middle" x="509" y="-301.9" style="font-family: Times New Roman;">xfce-utils</text>
</g>
<!-- libxml_parser_perl -->
<g id="node11" class="node"><title>libxml_parser_perl</title>
<ellipse style="fill: none; stroke: black;" cx="475" cy="-378" rx="82.1898" ry="18"/>
<text text-anchor="middle" x="475" y="-373.9" style="font-family: Times New Roman;">libxml-parser-perl</text>
</g>
<!-- xfce_utils&#45;&gt;libxml_parser_perl -->
<g id="edge144" class="edge"><title>xfce_utils-&gt;libxml_parser_perl</title>
<path style="fill: none; stroke: black;" d="M497,-333C492,-342 488,-352 484,-360"/>
<polygon style="fill: black; stroke: black;" points="500.137,-334.56 501,-324 493.74,-331.717 500.137,-334.56"/>
</g>
<!-- xfce_utils&#45;&gt;libxfce4util -->
<g id="edge140" class="edge"><title>xfce_utils-&gt;libxfce4util</title>
<path style="fill: none; stroke: black;" d="M455,-316C429,-323 401,-337 384,-360 370,-381 373,-532 379,-540 396,-560 554,-580 639,-589"/>
<polygon style="fill: black; stroke: black;" points="456.427,-319.226 465,-313 454.416,-312.521 456.427,-319.226"/>
</g>
<!-- xfce_utils&#45;&gt;libxfcegui4 -->
<g id="edge142" class="edge"><title>xfce_utils-&gt;libxfcegui4</title>
<path style="fill: none; stroke: black;" d="M549,-324C576,-337 611,-352 636,-363"/>
<polygon style="fill: black; stroke: black;" points="550.56,-320.863 540,-320 547.717,-327.26 550.56,-320.863"/>
</g>
<!-- dbus -->
<g id="node49" class="node"><title>dbus</title>
<ellipse style="fill: none; stroke: black;" cx="1238" cy="-594" rx="29.8799" ry="18"/>
<text text-anchor="middle" x="1238" y="-589.9" style="font-family: Times New Roman;">dbus</text>
</g>
<!-- xfce_utils&#45;&gt;dbus -->
<g id="edge146" class="edge"><title>xfce_utils-&gt;dbus</title>
<path style="fill: none; stroke: blue;" d="M540,-329C561,-347 583,-374 566,-396 534,-440 483,-389 450,-432 441,-445 440,-456 450,-468 594,-634 721,-510 938,-540 1054,-557 1086,-544 1199,-576 1204,-578 1210,-580 1215,-582"/>
<polygon style="fill: blue; stroke: blue;" points="541.831,-325.951 532,-322 537.221,-331.219 541.831,-325.951"/>
</g>
<!-- xfce4_settings -->
<g id="node12" class="node"><title>xfce4_settings</title>
<ellipse style="fill: none; stroke: black;" cx="1202" cy="-378" rx="68.7933" ry="18"/>
<text text-anchor="middle" x="1202" y="-373.9" style="font-family: Times New Roman;">xfce4-settings</text>
</g>
<!-- xfce4_settings&#45;&gt;dbus_glib -->
<g id="edge158" class="edge"><title>xfce4_settings-&gt;dbus_glib</title>
<path style="fill: none; stroke: black;" d="M1275,-386C1308,-390 1347,-393 1382,-396 1490,-406 1768,-392 1869,-432 1926,-456 2030,-490 1977,-522"/>
<polygon style="fill: black; stroke: black;" points="1275.3,-382.512 1265,-385 1274.6,-389.478 1275.3,-382.512"/>
<path style="fill: none; stroke: black;" d="M1977,-522C1966,-530 1965,-536 1953,-540 1795,-597 1364,-547 1199,-576 1192,-577 1184,-579 1177,-581"/>
</g>
<!-- xfce4_settings&#45;&gt;libxfce4util -->
<g id="edge148" class="edge"><title>xfce4_settings-&gt;libxfce4util</title>
<path style="fill: none; stroke: black;" d="M1139,-393C1111,-404 1080,-421 1067,-450"/>
<polygon style="fill: black; stroke: black;" points="1140.43,-396.226 1149,-390 1138.42,-389.521 1140.43,-396.226"/>
</g>
<!-- libglade -->
<g id="node33" class="node"><title>libglade</title>
<ellipse style="fill: none; stroke: black;" cx="503" cy="-450" rx="43.7776" ry="18"/>
<text text-anchor="middle" x="503" y="-445.9" style="font-family: Times New Roman;">libglade</text>
</g>
<!-- xfce4_settings&#45;&gt;libglade -->
<g id="edge156" class="edge"><title>xfce4_settings-&gt;libglade</title>
<path style="fill: none; stroke: black;" d="M1141,-393C1134,-394 1126,-395 1119,-396 871,-431 802,-384 556,-432 549,-433 542,-435 535,-438"/>
<polygon style="fill: black; stroke: black;" points="1142.43,-396.226 1151,-390 1140.42,-389.521 1142.43,-396.226"/>
</g>
<!-- xfce4_settings&#45;&gt;libexo -->
<g id="edge152" class="edge"><title>xfce4_settings-&gt;libexo</title>
<path style="fill: none; stroke: black;" d="M1152,-396C1123,-407 1086,-420 1053,-432 1047,-434 1040,-437 1033,-440"/>
<polygon style="fill: black; stroke: black;" points="1152.62,-399.483 1161,-393 1150.41,-392.842 1152.62,-399.483"/>
</g>
<!-- xfconf -->
<g id="node46" class="node"><title>xfconf</title>
<ellipse style="fill: none; stroke: black;" cx="1179" cy="-522" rx="36.8288" ry="18"/>
<text text-anchor="middle" x="1179" y="-517.9" style="font-family: Times New Roman;">xfconf</text>
</g>
<!-- xfce4_settings&#45;&gt;xfconf -->
<g id="edge154" class="edge"><title>xfce4_settings-&gt;xfconf</title>
<path style="fill: none; stroke: black;" d="M1276,-386C1403,-398 1649,-425 1656,-432 1666,-444 1666,-457 1656,-468 1626,-501 1323,-516 1216,-521"/>
<polygon style="fill: black; stroke: black;" points="1276.3,-382.512 1266,-385 1275.6,-389.478 1276.3,-382.512"/>
</g>
<!-- libxfce4gui4 -->
<g id="node122" class="node"><title>libxfce4gui4</title>
<ellipse style="fill: none; stroke: black;" cx="1765" cy="-450" rx="62.0391" ry="18"/>
<text text-anchor="middle" x="1765" y="-445.9" style="font-family: Times New Roman;">libxfce4gui4</text>
</g>
<!-- xfce4_settings&#45;&gt;libxfce4gui4 -->
<g id="edge150" class="edge"><title>xfce4_settings-&gt;libxfce4gui4</title>
<path style="fill: none; stroke: black;" d="M1276,-386C1403,-399 1649,-425 1689,-432 1699,-434 1709,-436 1718,-438"/>
<polygon style="fill: black; stroke: black;" points="1276.3,-382.512 1266,-385 1275.6,-389.478 1276.3,-382.512"/>
</g>
<!-- libXi -->
<g id="node128" class="node"><title>libXi</title>
<ellipse style="fill: none; stroke: black;" cx="1273" cy="-450" rx="30.0736" ry="18"/>
<text text-anchor="middle" x="1273" y="-445.9" style="font-family: Times New Roman;">libXi</text>
</g>
<!-- xfce4_settings&#45;&gt;libXi -->
<g id="edge160" class="edge"><title>xfce4_settings-&gt;libXi</title>
<path style="fill: none; stroke: black;" d="M1227,-403C1238,-414 1249,-425 1258,-434"/>
<polygon style="fill: black; stroke: black;" points="1229.55,-400.596 1220,-396 1224.6,-405.546 1229.55,-400.596"/>
</g>
<!-- libXrandr -->
<g id="node130" class="node"><title>libXrandr</title>
<ellipse style="fill: none; stroke: black;" cx="1369" cy="-450" rx="48.1403" ry="18"/>
<text text-anchor="middle" x="1369" y="-445.9" style="font-family: Times New Roman;">libXrandr</text>
</g>
<!-- xfce4_settings&#45;&gt;libXrandr -->
<g id="edge162" class="edge"><title>xfce4_settings-&gt;libXrandr</title>
<path style="fill: none; stroke: black;" d="M1247,-397C1275,-410 1312,-425 1337,-436"/>
<polygon style="fill: black; stroke: black;" points="1248.56,-393.863 1238,-393 1245.72,-400.26 1248.56,-393.863"/>
</g>
<!-- libXcursor -->
<g id="node132" class="node"><title>libXcursor</title>
<ellipse style="fill: none; stroke: black;" cx="1488" cy="-450" rx="52.8111" ry="18"/>
<text text-anchor="middle" x="1488" y="-445.9" style="font-family: Times New Roman;">libXcursor</text>
</g>
<!-- xfce4_settings&#45;&gt;libXcursor -->
<g id="edge164" class="edge"><title>xfce4_settings-&gt;libXcursor</title>
<path style="fill: none; stroke: blue;" d="M1264,-392C1309,-403 1371,-418 1426,-432 1433,-434 1440,-436 1447,-438"/>
<polygon style="fill: blue; stroke: blue;" points="1264.49,-388.529 1254,-390 1263.12,-395.393 1264.49,-388.529"/>
</g>
<!-- libnotify -->
<g id="node134" class="node"><title>libnotify</title>
<ellipse style="fill: none; stroke: black;" cx="1603" cy="-450" rx="43.7776" ry="18"/>
<text text-anchor="middle" x="1603" y="-445.9" style="font-family: Times New Roman;">libnotify</text>
</g>
<!-- xfce4_settings&#45;&gt;libnotify -->
<g id="edge166" class="edge"><title>xfce4_settings-&gt;libnotify</title>
<path style="fill: none; stroke: blue;" d="M1276,-386C1347,-394 1457,-409 1550,-432 1557,-434 1563,-436 1570,-438"/>
<polygon style="fill: blue; stroke: blue;" points="1276.3,-382.512 1266,-385 1275.6,-389.478 1276.3,-382.512"/>
</g>
<!-- xfce4_mixer -->
<g id="node13" class="node"><title>xfce4_mixer</title>
<ellipse style="fill: none; stroke: black;" cx="685" cy="-162" rx="59.9551" ry="18"/>
<text text-anchor="middle" x="685" y="-157.9" style="font-family: Times New Roman;">xfce4-mixer</text>
</g>
<!-- gst -->
<g id="node14" class="node"><title>gst</title>
<ellipse style="fill: none; stroke: black;" cx="559" cy="-234" rx="98.1724" ry="18"/>
<text text-anchor="middle" x="559" y="-229.9" style="font-family: Times New Roman;">gst-plugins-base-0.10</text>
</g>
<!-- xfce4_mixer&#45;&gt;gst -->
<g id="edge174" class="edge"><title>xfce4_mixer-&gt;gst</title>
<path style="fill: none; stroke: black;" d="M648,-183C630,-193 607,-207 589,-217"/>
<polygon style="fill: black; stroke: black;" points="649.958,-185.916 657,-178 646.559,-179.797 649.958,-185.916"/>
</g>
<!-- xfce4_mixer&#45;&gt;libxfce4util -->
<g id="edge168" class="edge"><title>xfce4_mixer-&gt;libxfce4util</title>
<path style="fill: none; stroke: black;" d="M693,-190C695,-205 695,-222 685,-234"/>
<polygon style="fill: black; stroke: black;" points="696.393,-189.119 691,-180 689.529,-190.492 696.393,-189.119"/>
<path style="fill: none; stroke: black;" d="M685,-234C678,-244 677,-248 666,-252 581,-291 310,-219 246,-288 236,-300 241,-309 246,-324 257,-353 287,-348 289,-378"/>
<path style="fill: none; stroke: black;" d="M289,-378C290,-415 197,-490 213,-522"/>
</g>
<!-- xfce4_mixer&#45;&gt;libxfcegui4 -->
<g id="edge170" class="edge"><title>xfce4_mixer-&gt;libxfcegui4</title>
<path style="fill: none; stroke: black;" d="M685,-234C660,-267 585,-306 585,-306"/>
</g>
<!-- libxfce4panel -->
<g id="node73" class="node"><title>libxfce4panel</title>
<ellipse style="fill: none; stroke: black;" cx="778" cy="-234" rx="64.8203" ry="18"/>
<text text-anchor="middle" x="778" y="-229.9" style="font-family: Times New Roman;">libxfce4panel</text>
</g>
<!-- xfce4_mixer&#45;&gt;libxfce4panel -->
<g id="edge172" class="edge"><title>xfce4_mixer-&gt;libxfce4panel</title>
<path style="fill: none; stroke: black;" d="M715,-185C729,-195 744,-207 756,-217"/>
<polygon style="fill: black; stroke: black;" points="717.1,-182.2 707,-179 712.9,-187.8 717.1,-182.2"/>
</g>
<!-- xfce4_appfinder -->
<g id="node15" class="node"><title>xfce4_appfinder</title>
<ellipse style="fill: none; stroke: black;" cx="330" cy="-306" rx="75.0473" ry="18"/>
<text text-anchor="middle" x="330" y="-301.9" style="font-family: Times New Roman;">xfce4-appfinder</text>
</g>
<!-- xfce4_appfinder&#45;&gt;gtk -->
<g id="edge190" class="edge"><title>xfce4_appfinder-&gt;gtk</title>
<path style="fill: none; stroke: black;" d="M271,-323C195,-348 65,-404 8,-504 1,-518 -1,-528 8,-540 24,-562 96,-579 140,-588"/>
<polygon style="fill: black; stroke: black;" points="272.427,-326.226 281,-320 270.416,-319.521 272.427,-326.226"/>
</g>
<!-- xfce4_appfinder&#45;&gt;libxfce4util -->
<g id="edge186" class="edge"><title>xfce4_appfinder-&gt;libxfce4util</title>
<path style="fill: none; stroke: black;" d="M307,-332C297,-345 288,-362 289,-378"/>
<polygon style="fill: black; stroke: black;" points="309.8,-334.1 313,-324 304.2,-329.9 309.8,-334.1"/>
</g>
<!-- xfce4_appfinder&#45;&gt;libxfcegui4 -->
<g id="edge188" class="edge"><title>xfce4_appfinder-&gt;libxfcegui4</title>
<path style="fill: none; stroke: black;" d="M396,-320C463,-334 564,-356 622,-368"/>
<polygon style="fill: black; stroke: black;" points="396.492,-316.529 386,-318 395.119,-323.393 396.492,-316.529"/>
</g>
<!-- xfce4_session -->
<g id="node16" class="node"><title>xfce4_session</title>
<ellipse style="fill: none; stroke: black;" cx="1700" cy="-306" rx="66.9043" ry="18"/>
<text text-anchor="middle" x="1700" y="-301.9" style="font-family: Times New Roman;">xfce4-session</text>
</g>
<!-- xfce4_session&#45;&gt;perl5_xml_parser -->
<g id="edge50" class="edge"><title>xfce4_session-&gt;perl5_xml_parser</title>
<path style="fill: none; stroke: black;" d="M1718,-332C1724,-342 1731,-352 1737,-360"/>
<polygon style="fill: black; stroke: black;" points="1720.8,-329.9 1712,-324 1715.2,-334.1 1720.8,-329.9"/>
</g>
<!-- xfce4_session&#45;&gt;libxfce4util -->
<g id="edge46" class="edge"><title>xfce4_session-&gt;libxfce4util</title>
<path style="fill: none; stroke: black;" d="M1676,-332C1660,-351 1646,-378 1662,-396 1722,-468 1788,-384 1869,-432 1912,-459 1976,-488 1939,-522"/>
<polygon style="fill: black; stroke: black;" points="1678.8,-334.1 1682,-324 1673.2,-329.9 1678.8,-334.1"/>
<path style="fill: none; stroke: black;" d="M1939,-522C1928,-532 989,-579 748,-591"/>
</g>
<!-- xfce4_session&#45;&gt;libxfcegui4 -->
<g id="edge48" class="edge"><title>xfce4_session-&gt;libxfcegui4</title>
<path style="fill: none; stroke: black;" d="M1623,-308C1425,-315 905,-332 734,-360 726,-361 718,-363 710,-365"/>
<polygon style="fill: black; stroke: black;" points="1623,-311.5 1633,-308 1623,-304.5 1623,-311.5"/>
</g>
<!-- xfce4_session&#45;&gt;dbus -->
<g id="edge54" class="edge"><title>xfce4_session-&gt;dbus</title>
<path style="fill: none; stroke: blue;" d="M1750,-325C1860,-365 2112,-468 2062,-522"/>
<polygon style="fill: blue; stroke: blue;" points="1750.58,-321.464 1740,-321 1747.98,-327.964 1750.58,-321.464"/>
<path style="fill: none; stroke: blue;" d="M2062,-522C1999,-573 1409,-590 1268,-593"/>
</g>
<!-- xfce4_session&#45;&gt;libwnck -->
<g id="edge52" class="edge"><title>xfce4_session-&gt;libwnck</title>
<path style="fill: none; stroke: black;" d="M1643,-322C1590,-336 1513,-356 1469,-368"/>
<polygon style="fill: black; stroke: black;" points="1644.43,-325.226 1653,-319 1642.42,-318.521 1644.43,-325.226"/>
</g>
<!-- glib -->
<g id="node26" class="node"><title>glib</title>
<ellipse style="fill: none; stroke: black;" cx="650" cy="-666" rx="27" ry="18"/>
<text text-anchor="middle" x="650" y="-661.9" style="font-family: Times New Roman;">glib</text>
</g>
<!-- libxfce4util&#45;&gt;glib -->
<g id="edge10" class="edge"><title>libxfce4util-&gt;glib</title>
<path style="fill: none; stroke: black;" d="M677,-621C672,-630 665,-641 660,-649"/>
<polygon style="fill: black; stroke: black;" points="680.203,-622.441 682,-612 674.084,-619.042 680.203,-622.441"/>
</g>
<!-- gobject -->
<g id="node28" class="node"><title>gobject</title>
<ellipse style="fill: none; stroke: black;" cx="736" cy="-666" rx="40.9981" ry="18"/>
<text text-anchor="middle" x="736" y="-661.9" style="font-family: Times New Roman;">gobject</text>
</g>
<!-- libxfce4util&#45;&gt;gobject -->
<g id="edge12" class="edge"><title>libxfce4util-&gt;gobject</title>
<path style="fill: none; stroke: black;" d="M709,-621C714,-630 720,-640 725,-648"/>
<polygon style="fill: black; stroke: black;" points="711.916,-619.042 704,-612 705.797,-622.441 711.916,-619.042"/>
</g>
<!-- libxfcegui4&#45;&gt;gtk -->
<g id="edge16" class="edge"><title>libxfcegui4-&gt;gtk</title>
<path style="fill: none; stroke: black;" d="M612,-390C493,-415 228,-475 199,-504 181,-523 176,-556 175,-576"/>
<polygon style="fill: black; stroke: black;" points="612.881,-393.393 622,-388 611.508,-386.529 612.881,-393.393"/>
</g>
<!-- libxfcegui4&#45;&gt;libstartup_notification -->
<g id="edge20" class="edge"><title>libxfcegui4-&gt;libstartup_notification</title>
<path style="fill: none; stroke: blue;" d="M709,-398C732,-409 760,-422 782,-433"/>
<polygon style="fill: blue; stroke: blue;" points="710.441,-394.797 700,-393 707.042,-400.916 710.441,-394.797"/>
</g>
<!-- libxfcegui4&#45;&gt;libxfce4util -->
<g id="edge14" class="edge"><title>libxfcegui4-&gt;libxfce4util</title>
<path style="fill: none; stroke: black;" d="M616,-392C610,-393 605,-395 599,-396 528,-414 404,-411 450,-468 520,-555 737,-421 693,-522"/>
<polygon style="fill: black; stroke: black;" points="616.881,-395.393 626,-390 615.508,-388.529 616.881,-395.393"/>
<path style="fill: none; stroke: black;" d="M693,-522C686,-539 687,-561 689,-576"/>
</g>
<!-- libxfcegui4&#45;&gt;libglade -->
<g id="edge18" class="edge"><title>libxfcegui4-&gt;libglade</title>
<path style="fill: none; stroke: black;" d="M625,-397C596,-410 559,-426 533,-437"/>
<polygon style="fill: black; stroke: black;" points="627.015,-399.964 635,-393 624.415,-393.464 627.015,-399.964"/>
</g>
<!-- libgladeui -->
<g id="node36" class="node"><title>libgladeui</title>
<ellipse style="fill: none; stroke: black;" cx="615" cy="-450" rx="50.2242" ry="18"/>
<text text-anchor="middle" x="615" y="-445.9" style="font-family: Times New Roman;">libgladeui</text>
</g>
<!-- libxfcegui4&#45;&gt;libgladeui -->
<g id="edge22" class="edge"><title>libxfcegui4-&gt;libgladeui</title>
<path style="fill: none; stroke: blue;" d="M650,-404C643,-413 635,-424 628,-432"/>
<polygon style="fill: blue; stroke: blue;" points="652.8,-406.1 656,-396 647.2,-401.9 652.8,-406.1"/>
</g>
<!-- libxfconf -->
<g id="node38" class="node"><title>libxfconf</title>
<ellipse style="fill: none; stroke: black;" cx="1179" cy="-450" rx="46.0565" ry="18"/>
<text text-anchor="middle" x="1179" y="-445.9" style="font-family: Times New Roman;">libxfconf</text>
</g>
<!-- libxfcegui4&#45;&gt;libxfconf -->
<g id="edge24" class="edge"><title>libxfcegui4-&gt;libxfconf</title>
<path style="fill: none; stroke: blue;" d="M720,-393C724,-394 729,-395 734,-396 887,-425 928,-410 1081,-432 1099,-435 1120,-439 1137,-442"/>
<polygon style="fill: blue; stroke: blue;" points="720.492,-389.529 710,-391 719.119,-396.393 720.492,-389.529"/>
</g>
<!-- libxfconf&#45;&gt;xfconf -->
<g id="edge44" class="edge"><title>libxfconf-&gt;xfconf</title>
<path style="fill: none; stroke: black;" d="M1179,-478C1179,-487 1179,-496 1179,-504"/>
<polygon style="fill: black; stroke: black;" points="1182.5,-478 1179,-468 1175.5,-478 1182.5,-478"/>
</g>
<!-- libxfce4menu -->
<g id="node39" class="node"><title>libxfce4menu</title>
<ellipse style="fill: none; stroke: black;" cx="82" cy="-522" rx="64.8203" ry="18"/>
<text text-anchor="middle" x="82" y="-517.9" style="font-family: Times New Roman;">libxfce4menu</text>
</g>
<!-- libxfce4menu&#45;&gt;gtk -->
<g id="edge28" class="edge"><title>libxfce4menu-&gt;gtk</title>
<path style="fill: none; stroke: black;" d="M112,-545C127,-556 143,-569 155,-579"/>
<polygon style="fill: black; stroke: black;" points="114.1,-542.2 104,-539 109.9,-547.8 114.1,-542.2"/>
</g>
<!-- libxfce4menu&#45;&gt;libxfce4util -->
<g id="edge26" class="edge"><title>libxfce4menu-&gt;libxfce4util</title>
<path style="fill: none; stroke: black;" d="M148,-533C165,-535 182,-538 199,-540 359,-561 548,-580 639,-589"/>
<polygon style="fill: black; stroke: black;" points="148.492,-529.529 138,-531 147.119,-536.393 148.492,-529.529"/>
</g>
<!-- libexo&#45;&gt;gtk -->
<g id="edge32" class="edge"><title>libexo-&gt;gtk</title>
<path style="fill: none; stroke: black;" d="M962,-460C949,-463 935,-466 922,-468 815,-488 787,-487 679,-504 502,-533 291,-572 210,-588"/>
<polygon style="fill: black; stroke: black;" points="962.881,-463.393 972,-458 961.508,-456.529 962.881,-463.393"/>
</g>
<!-- libexo&#45;&gt;perl5_uri -->
<g id="edge34" class="edge"><title>libexo-&gt;perl5_uri</title>
<path style="fill: none; stroke: black;" d="M999,-478C998,-487 997,-496 996,-504"/>
<polygon style="fill: black; stroke: black;" points="1002.47,-478.492 1001,-468 995.607,-477.119 1002.47,-478.492"/>
</g>
<!-- libexo&#45;&gt;libxfce4util -->
<g id="edge30" class="edge"><title>libexo-&gt;libxfce4util</title>
<path style="fill: none; stroke: black;" d="M966,-465C963,-466 959,-467 955,-468 898,-485 717,-468 693,-522"/>
<polygon style="fill: black; stroke: black;" points="968.015,-467.964 976,-461 965.415,-461.464 968.015,-467.964"/>
</g>
<!-- xfconf&#45;&gt;gtk -->
<g id="edge42" class="edge"><title>xfconf-&gt;gtk</title>
<path style="fill: none; stroke: black;" d="M1134,-529C1108,-533 1076,-537 1048,-540 726,-573 333,-588 212,-593"/>
<polygon style="fill: black; stroke: black;" points="1134.4,-532.478 1144,-528 1133.7,-525.512 1134.4,-532.478"/>
</g>
<!-- xfconf&#45;&gt;dbus_glib -->
<g id="edge40" class="edge"><title>xfconf-&gt;dbus_glib</title>
<path style="fill: none; stroke: black;" d="M1165,-549C1160,-558 1155,-568 1151,-576"/>
<polygon style="fill: black; stroke: black;" points="1168.2,-550.441 1170,-540 1162.08,-547.042 1168.2,-550.441"/>
</g>
<!-- xfconf&#45;&gt;libxfce4util -->
<g id="edge36" class="edge"><title>xfconf-&gt;libxfce4util</title>
<path style="fill: none; stroke: black;" d="M1134,-531C1117,-534 1098,-538 1081,-540 962,-560 820,-578 745,-588"/>
<polygon style="fill: black; stroke: black;" points="1134.88,-534.393 1144,-529 1133.51,-527.529 1134.88,-534.393"/>
</g>
<!-- xfconf&#45;&gt;dbus -->
<g id="edge38" class="edge"><title>xfconf-&gt;dbus</title>
<path style="fill: none; stroke: black;" d="M1199,-547C1207,-557 1217,-568 1224,-577"/>
<polygon style="fill: black; stroke: black;" points="1201.8,-544.9 1193,-539 1196.2,-549.1 1201.8,-544.9"/>
</g>
<!-- xfwm4 -->
<g id="node59" class="node"><title>xfwm4</title>
<ellipse style="fill: none; stroke: black;" cx="1100" cy="-306" rx="38.9134" ry="18"/>
<text text-anchor="middle" x="1100" y="-301.9" style="font-family: Times New Roman;">xfwm4</text>
</g>
<!-- xfwm4&#45;&gt;libstartup_notification -->
<g id="edge66" class="edge"><title>xfwm4-&gt;libstartup_notification</title>
<path style="fill: none; stroke: blue;" d="M1065,-324C1010,-352 904,-406 850,-433"/>
<polygon style="fill: blue; stroke: blue;" points="1066.96,-326.916 1074,-319 1063.56,-320.797 1066.96,-326.916"/>
</g>
<!-- xfwm4&#45;&gt;dbus_glib -->
<g id="edge62" class="edge"><title>xfwm4-&gt;dbus_glib</title>
<path style="fill: none; stroke: black;" d="M1105,-378C1113,-452 1131,-539 1138,-576"/>
</g>
<!-- xfwm4&#45;&gt;libxfce4util -->
<g id="edge56" class="edge"><title>xfwm4-&gt;libxfce4util</title>
<path style="fill: none; stroke: black;" d="M1101,-334C1102,-348 1103,-364 1105,-378"/>
<polygon style="fill: black; stroke: black;" points="1104.48,-333.602 1100,-324 1097.51,-334.299 1104.48,-333.602"/>
<path style="fill: none; stroke: black;" d="M1105,-378C1109,-414 1082,-418 1067,-450"/>
<path style="fill: none; stroke: black;" d="M1067,-450C1050,-488 1077,-512 1048,-540 1026,-561 841,-580 747,-589"/>
</g>
<!-- xfwm4&#45;&gt;libxfcegui4 -->
<g id="edge58" class="edge"><title>xfwm4-&gt;libxfcegui4</title>
<path style="fill: none; stroke: black;" d="M1058,-319C1051,-321 1044,-323 1037,-324 905,-351 868,-334 734,-360 726,-362 718,-364 710,-366"/>
<polygon style="fill: black; stroke: black;" points="1059.43,-322.226 1068,-316 1057.42,-315.521 1059.43,-322.226"/>
</g>
<!-- xfwm4&#45;&gt;libxfconf -->
<g id="edge60" class="edge"><title>xfwm4-&gt;libxfconf</title>
<path style="fill: none; stroke: black;" d="M1105,-378C1108,-404 1131,-423 1151,-436"/>
</g>
<!-- xfwm4&#45;&gt;libwnck -->
<g id="edge64" class="edge"><title>xfwm4-&gt;libwnck</title>
<path style="fill: none; stroke: black;" d="M1145,-316C1211,-330 1334,-357 1395,-370"/>
<polygon style="fill: black; stroke: black;" points="1145.49,-312.529 1135,-314 1144.12,-319.393 1145.49,-312.529"/>
</g>
<!-- libxfce4panel&#45;&gt;xfce4_panel -->
<g id="edge80" class="edge"><title>libxfce4panel-&gt;xfce4_panel</title>
<path style="fill: none; stroke: black;" d="M778,-262C778,-271 778,-280 778,-288"/>
<polygon style="fill: black; stroke: black;" points="781.5,-262 778,-252 774.5,-262 781.5,-262"/>
</g>
<!-- thunar -->
<g id="node75" class="node"><title>thunar</title>
<ellipse style="fill: none; stroke: black;" cx="1459" cy="-162" rx="34.9399" ry="18"/>
<text text-anchor="middle" x="1459" y="-157.9" style="font-family: Times New Roman;">thunar</text>
</g>
<!-- thunar&#45;&gt;libstartup_notification -->
<g id="edge98" class="edge"><title>thunar-&gt;libstartup_notification</title>
<path style="fill: none; stroke: blue;" d="M1414,-166C1317,-176 1091,-200 1023,-234"/>
<polygon style="fill: blue; stroke: blue;" points="1414.4,-169.478 1424,-165 1413.7,-162.512 1414.4,-169.478"/>
<path style="fill: none; stroke: blue;" d="M1023,-234C930,-281 855,-389 828,-432"/>
</g>
<!-- thunar&#45;&gt;hal_storage -->
<g id="edge108" class="edge"><title>thunar-&gt;hal_storage</title>
<path style="fill: none; stroke: blue;" d="M1474,-188C1480,-197 1486,-208 1491,-216"/>
<polygon style="fill: blue; stroke: blue;" points="1476.92,-186.042 1469,-179 1470.8,-189.441 1476.92,-186.042"/>
</g>
<!-- thunar&#45;&gt;libxfce4util -->
<g id="edge82" class="edge"><title>thunar-&gt;libxfce4util</title>
<path style="fill: none; stroke: black;" d="M1023,-234C997,-252 1032,-276 1023,-306"/>
<path style="fill: none; stroke: black;" d="M1023,-306C1012,-347 957,-444 922,-468 838,-529 737,-427 693,-522"/>
</g>
<!-- thunar&#45;&gt;libxfcegui4 -->
<g id="edge84" class="edge"><title>thunar-&gt;libxfcegui4</title>
<path style="fill: none; stroke: black;" d="M1414,-166C1333,-174 1156,-191 1009,-216 939,-229 922,-237 852,-252 793,-265 584,-246 585,-306"/>
<polygon style="fill: black; stroke: black;" points="1414.4,-169.478 1424,-165 1413.7,-162.512 1414.4,-169.478"/>
</g>
<!-- thunar&#45;&gt;libexo -->
<g id="edge86" class="edge"><title>thunar-&gt;libexo</title>
<path style="fill: none; stroke: black;" d="M1023,-306C1012,-351 1007,-404 1005,-432"/>
</g>
<!-- thunar&#45;&gt;xfconf -->
<g id="edge112" class="edge"><title>thunar-&gt;xfconf</title>
<path style="fill: none; stroke: blue;" d="M1442,-188C1433,-207 1425,-232 1436,-252 1489,-353 1543,-353 1649,-396 1736,-433 1876,-358 1855,-450"/>
<polygon style="fill: blue; stroke: blue;" points="1445.2,-189.441 1447,-179 1439.08,-186.042 1445.2,-189.441"/>
<path style="fill: none; stroke: blue;" d="M1855,-450C1852,-462 1846,-464 1836,-468 1779,-493 1347,-515 1216,-520"/>
</g>
<!-- thunar&#45;&gt;dbus -->
<g id="edge94" class="edge"><title>thunar-&gt;dbus</title>
<path style="fill: none; stroke: blue;" d="M1504,-165C1630,-171 1977,-192 2022,-216 2092,-256 2105,-284 2131,-360 2146,-406 2152,-425 2131,-468 2113,-504 2092,-498 2062,-522"/>
<polygon style="fill: blue; stroke: blue;" points="1504.3,-161.512 1494,-164 1503.6,-168.478 1504.3,-161.512"/>
</g>
<!-- thunar&#45;&gt;libxfce4panel -->
<g id="edge110" class="edge"><title>thunar-&gt;libxfce4panel</title>
<path style="fill: none; stroke: blue;" d="M1414,-164C1313,-169 1064,-184 857,-216 847,-218 837,-220 827,-222"/>
<polygon style="fill: blue; stroke: blue;" points="1414,-167.5 1424,-164 1414,-160.5 1414,-167.5"/>
</g>
<!-- libpng -->
<g id="node80" class="node"><title>libpng</title>
<ellipse style="fill: none; stroke: black;" cx="1610" cy="-234" rx="34.9399" ry="18"/>
<text text-anchor="middle" x="1610" y="-229.9" style="font-family: Times New Roman;">libpng</text>
</g>
<!-- thunar&#45;&gt;libpng -->
<g id="edge88" class="edge"><title>thunar-&gt;libpng</title>
<path style="fill: none; stroke: black;" d="M1494,-178C1522,-191 1559,-209 1584,-222"/>
<polygon style="fill: black; stroke: black;" points="1495.56,-174.863 1485,-174 1492.72,-181.26 1495.56,-174.863"/>
</g>
<!-- libgtk -->
<g id="node82" class="node"><title>libgtk</title>
<ellipse style="fill: none; stroke: black;" cx="1697" cy="-234" rx="34.0492" ry="18"/>
<text text-anchor="middle" x="1697" y="-229.9" style="font-family: Times New Roman;">libgtk</text>
</g>
<!-- thunar&#45;&gt;libgtk -->
<g id="edge90" class="edge"><title>thunar-&gt;libgtk</title>
<path style="fill: none; stroke: black;" d="M1501,-172C1541,-182 1602,-199 1654,-216 1659,-218 1665,-220 1671,-223"/>
<polygon style="fill: black; stroke: black;" points="1501.49,-168.529 1491,-170 1500.12,-175.393 1501.49,-168.529"/>
</g>
<!-- libexif -->
<g id="node84" class="node"><title>libexif</title>
<ellipse style="fill: none; stroke: black;" cx="1785" cy="-234" rx="36.1339" ry="18"/>
<text text-anchor="middle" x="1785" y="-229.9" style="font-family: Times New Roman;">libexif</text>
</g>
<!-- thunar&#45;&gt;libexif -->
<g id="edge92" class="edge"><title>thunar-&gt;libexif</title>
<path style="fill: none; stroke: blue;" d="M1503,-168C1559,-176 1657,-193 1740,-216 1745,-218 1751,-220 1757,-222"/>
<polygon style="fill: blue; stroke: blue;" points="1503.3,-164.512 1493,-167 1502.6,-171.478 1503.3,-164.512"/>
</g>
<!-- gconf -->
<g id="node87" class="node"><title>gconf</title>
<ellipse style="fill: none; stroke: black;" cx="1873" cy="-234" rx="34.0492" ry="18"/>
<text text-anchor="middle" x="1873" y="-229.9" style="font-family: Times New Roman;">gconf</text>
</g>
<!-- thunar&#45;&gt;gconf -->
<g id="edge96" class="edge"><title>thunar-&gt;gconf</title>
<path style="fill: none; stroke: blue;" d="M1504,-165C1574,-170 1715,-185 1830,-216 1835,-218 1841,-220 1847,-222"/>
<polygon style="fill: blue; stroke: blue;" points="1504.3,-161.512 1494,-164 1503.6,-168.478 1504.3,-161.512"/>
</g>
<!-- freetype -->
<g id="node90" class="node"><title>freetype</title>
<ellipse style="fill: none; stroke: black;" cx="1969" cy="-234" rx="43.7776" ry="18"/>
<text text-anchor="middle" x="1969" y="-229.9" style="font-family: Times New Roman;">freetype</text>
</g>
<!-- thunar&#45;&gt;freetype -->
<g id="edge100" class="edge"><title>thunar-&gt;freetype</title>
<path style="fill: none; stroke: blue;" d="M1504,-165C1587,-169 1767,-182 1916,-216 1923,-218 1929,-220 1936,-222"/>
<polygon style="fill: blue; stroke: blue;" points="1504.3,-161.512 1494,-164 1503.6,-168.478 1504.3,-161.512"/>
</g>
<!-- libjpeg -->
<g id="node92" class="node"><title>libjpeg</title>
<ellipse style="fill: none; stroke: black;" cx="1191" cy="-234" rx="38.2185" ry="18"/>
<text text-anchor="middle" x="1191" y="-229.9" style="font-family: Times New Roman;">libjpeg</text>
</g>
<!-- thunar&#45;&gt;libjpeg -->
<g id="edge102" class="edge"><title>thunar-&gt;libjpeg</title>
<path style="fill: none; stroke: blue;" d="M1416,-171C1372,-180 1299,-197 1238,-216 1232,-218 1226,-220 1220,-222"/>
<polygon style="fill: blue; stroke: blue;" points="1416.88,-174.393 1426,-169 1415.51,-167.529 1416.88,-174.393"/>
</g>
<!-- gamin -->
<g id="node94" class="node"><title>gamin</title>
<ellipse style="fill: none; stroke: black;" cx="1282" cy="-234" rx="34.9399" ry="18"/>
<text text-anchor="middle" x="1282" y="-229.9" style="font-family: Times New Roman;">gamin</text>
</g>
<!-- thunar&#45;&gt;gamin -->
<g id="edge104" class="edge"><title>thunar-&gt;gamin</title>
<path style="fill: none; stroke: blue;" d="M1422,-177C1395,-188 1358,-203 1326,-216 1321,-218 1315,-220 1310,-223"/>
<polygon style="fill: blue; stroke: blue;" points="1423.28,-180.26 1431,-173 1420.44,-173.863 1423.28,-180.26"/>
</g>
<!-- fam -->
<g id="node96" class="node"><title>fam</title>
<ellipse style="fill: none; stroke: black;" cx="1362" cy="-234" rx="27" ry="18"/>
<text text-anchor="middle" x="1362" y="-229.9" style="font-family: Times New Roman;">fam</text>
</g>
<!-- thunar&#45;&gt;fam -->
<g id="edge106" class="edge"><title>thunar-&gt;fam</title>
<path style="fill: none; stroke: blue;" d="M1431,-183C1414,-195 1394,-210 1380,-221"/>
<polygon style="fill: blue; stroke: blue;" points="1433.1,-185.8 1439,-177 1428.9,-180.2 1433.1,-185.8"/>
</g>
<!-- thunarx -->
<g id="node100" class="node"><title>thunarx</title>
<ellipse style="fill: none; stroke: black;" cx="1512" cy="-90" rx="39.8056" ry="18"/>
<text text-anchor="middle" x="1512" y="-85.9" style="font-family: Times New Roman;">thunarx</text>
</g>
<!-- thunarx&#45;&gt;thunar -->
<g id="edge114" class="edge"><title>thunarx-&gt;thunar</title>
<path style="fill: none; stroke: black;" d="M1493,-115C1486,-125 1478,-136 1472,-145"/>
<polygon style="fill: black; stroke: black;" points="1495.8,-117.1 1499,-107 1490.2,-112.9 1495.8,-117.1"/>
</g>
<!-- thunarvfs -->
<g id="node102" class="node"><title>thunarvfs</title>
<ellipse style="fill: none; stroke: black;" cx="1406" cy="-90" rx="47.9469" ry="18"/>
<text text-anchor="middle" x="1406" y="-85.9" style="font-family: Times New Roman;">thunarvfs</text>
</g>
<!-- thunarvfs&#45;&gt;thunar -->
<g id="edge116" class="edge"><title>thunarvfs-&gt;thunar</title>
<path style="fill: none; stroke: black;" d="M1425,-115C1432,-125 1440,-136 1446,-145"/>
<polygon style="fill: black; stroke: black;" points="1427.8,-112.9 1419,-107 1422.2,-117.1 1427.8,-112.9"/>
</g>
<!-- xfdesktop -->
<g id="node104" class="node"><title>xfdesktop</title>
<ellipse style="fill: none; stroke: black;" cx="1459" cy="-18" rx="50.2242" ry="18"/>
<text text-anchor="middle" x="1459" y="-13.9" style="font-family: Times New Roman;">xfdesktop</text>
</g>
<!-- xfdesktop&#45;&gt;dbus_glib -->
<g id="edge128" class="edge"><title>xfdesktop-&gt;dbus_glib</title>
<path style="fill: none; stroke: blue;" d="M2117,-378C2099,-392 1995,-510 1977,-522"/>
</g>
<!-- xfdesktop&#45;&gt;libxfce4util -->
<g id="edge118" class="edge"><title>xfdesktop-&gt;libxfce4util</title>
<path style="fill: none; stroke: black;" d="M213,-450C201,-480 196,-496 213,-522"/>
<path style="fill: none; stroke: black;" d="M213,-522C236,-557 517,-581 638,-590"/>
</g>
<!-- xfdesktop&#45;&gt;libxfcegui4 -->
<g id="edge120" class="edge"><title>xfdesktop-&gt;libxfcegui4</title>
<path style="fill: none; stroke: black;" d="M433,-234C390,-295 589,-232 585,-306"/>
<path style="fill: none; stroke: black;" d="M585,-306C584,-334 609,-353 633,-364"/>
</g>
<!-- xfdesktop&#45;&gt;libglade -->
<g id="edge126" class="edge"><title>xfdesktop-&gt;libglade</title>
<path style="fill: none; stroke: black;" d="M433,-234C410,-268 432,-288 414,-324 405,-343 392,-341 384,-360 379,-376 376,-383 384,-396 401,-423 435,-436 462,-443"/>
</g>
<!-- xfdesktop&#45;&gt;libxfconf -->
<g id="edge122" class="edge"><title>xfdesktop-&gt;libxfconf</title>
<path style="fill: none; stroke: black;" d="M2117,-162C2156,-250 2179,-306 2117,-378"/>
<path style="fill: none; stroke: black;" d="M2117,-378C2107,-385 2108,-392 2098,-396 1921,-471 1423,-398 1234,-432 1227,-433 1219,-435 1212,-438"/>
</g>
<!-- xfdesktop&#45;&gt;libxfce4menu -->
<g id="edge136" class="edge"><title>xfdesktop-&gt;libxfce4menu</title>
<path style="fill: none; stroke: blue;" d="M1399,-22C1297,-28 1084,-47 909,-90"/>
<polygon style="fill: blue; stroke: blue;" points="1399.4,-25.4778 1409,-21 1398.7,-18.5125 1399.4,-25.4778"/>
<path style="fill: none; stroke: blue;" d="M909,-90C898,-93 901,-103 890,-108 780,-161 735,-111 616,-144 529,-169 489,-163 433,-234"/>
<path style="fill: none; stroke: blue;" d="M433,-234C371,-300 297,-221 237,-288 189,-343 234,-381 213,-450"/>
<path style="fill: none; stroke: blue;" d="M213,-450C199,-483 164,-501 133,-511"/>
</g>
<!-- xfdesktop&#45;&gt;libexo -->
<g id="edge134" class="edge"><title>xfdesktop-&gt;libexo</title>
<path style="fill: none; stroke: blue;" d="M909,-162C870,-264 956,-389 990,-433"/>
</g>
<!-- xfdesktop&#45;&gt;libwnck -->
<g id="edge124" class="edge"><title>xfdesktop-&gt;libwnck</title>
<path style="fill: none; stroke: black;" d="M1517,-24C1681,-44 2131,-103 2117,-162"/>
<polygon style="fill: black; stroke: black;" points="1517.3,-20.5125 1507,-23 1516.6,-27.4778 1517.3,-20.5125"/>
<path style="fill: none; stroke: black;" d="M2117,-162C2137,-217 2075,-229 2022,-252 1860,-326 1795,-242 1624,-288 1560,-305 1492,-343 1457,-363"/>
</g>
<!-- xfdesktop&#45;&gt;libxfce4panel -->
<g id="edge138" class="edge"><title>xfdesktop-&gt;libxfce4panel</title>
<path style="fill: none; stroke: blue;" d="M909,-90C878,-98 921,-133 909,-162"/>
<path style="fill: none; stroke: blue;" d="M909,-162C897,-195 861,-213 830,-223"/>
</g>
<!-- xfdesktop&#45;&gt;thunarx -->
<g id="edge132" class="edge"><title>xfdesktop-&gt;thunarx</title>
<path style="fill: none; stroke: blue;" d="M1478,-43C1485,-53 1493,-64 1499,-73"/>
<polygon style="fill: blue; stroke: blue;" points="1480.8,-40.9 1472,-35 1475.2,-45.1 1480.8,-40.9"/>
</g>
<!-- xfdesktop&#45;&gt;thunarvfs -->
<g id="edge130" class="edge"><title>xfdesktop-&gt;thunarvfs</title>
<path style="fill: none; stroke: blue;" d="M1440,-43C1433,-53 1425,-64 1419,-73"/>
<polygon style="fill: blue; stroke: blue;" points="1442.8,-45.1 1446,-35 1437.2,-40.9 1442.8,-45.1"/>
</g>
<!-- xfprint -->
<g id="node139" class="node"><title>xfprint</title>
<ellipse style="fill: none; stroke: black;" cx="1931" cy="-306" rx="36.8288" ry="18"/>
<text text-anchor="middle" x="1931" y="-301.9" style="font-family: Times New Roman;">xfprint</text>
</g>
<!-- xfprint&#45;&gt;libxfce4util -->
<g id="edge176" class="edge"><title>xfprint-&gt;libxfce4util</title>
<path style="fill: none; stroke: black;" d="M1937,-334C1948,-387 1965,-498 1939,-522"/>
<polygon style="fill: black; stroke: black;" points="1940.39,-333.119 1935,-324 1933.53,-334.492 1940.39,-333.119"/>
</g>
<!-- xfprint&#45;&gt;libxfcegui4 -->
<g id="edge178" class="edge"><title>xfprint-&gt;libxfcegui4</title>
<path style="fill: none; stroke: black;" d="M1885,-312C1854,-316 1813,-321 1776,-324 1313,-359 1192,-290 734,-360 726,-361 718,-363 710,-365"/>
<polygon style="fill: black; stroke: black;" points="1885.4,-315.478 1895,-311 1884.7,-308.512 1885.4,-315.478"/>
</g>
<!-- xfprint&#45;&gt;xfconf -->
<g id="edge180" class="edge"><title>xfprint-&gt;xfconf</title>
<path style="fill: none; stroke: black;" d="M1912,-331C1893,-359 1864,-406 1855,-450"/>
<polygon style="fill: black; stroke: black;" points="1914.8,-333.1 1918,-323 1909.2,-328.9 1914.8,-333.1"/>
</g>
<!-- cups -->
<g id="node144" class="node"><title>cups</title>
<ellipse style="fill: none; stroke: black;" cx="1988" cy="-378" rx="29.1851" ry="18"/>
<text text-anchor="middle" x="1988" y="-373.9" style="font-family: Times New Roman;">cups</text>
</g>
<!-- xfprint&#45;&gt;cups -->
<g id="edge182" class="edge"><title>xfprint-&gt;cups</title>
<path style="fill: none; stroke: blue;" d="M1951,-331C1959,-341 1968,-352 1975,-361"/>
<polygon style="fill: blue; stroke: blue;" points="1953.8,-328.9 1945,-323 1948.2,-333.1 1953.8,-328.9"/>
</g>
<!-- lpr -->
<g id="node146" class="node"><title>lpr</title>
<ellipse style="fill: none; stroke: black;" cx="2062" cy="-378" rx="27" ry="18"/>
<text text-anchor="middle" x="2062" y="-373.9" style="font-family: Times New Roman;">lpr</text>
</g>
<!-- xfprint&#45;&gt;lpr -->
<g id="edge184" class="edge"><title>xfprint-&gt;lpr</title>
<path style="fill: none; stroke: blue;" d="M1965,-325C1989,-338 2021,-355 2041,-366"/>
<polygon style="fill: blue; stroke: blue;" points="1966.44,-321.797 1956,-320 1963.04,-327.916 1966.44,-321.797"/>
</g>
</g>
</svg>